<?xml version="1.0" standalone="no"?><!DOCTYPE svg PUBLIC "-//W3C//DTD SVG 1.1//EN" "http://www.w3.org/Graphics/SVG/1.1/DTD/svg11.dtd"><svg t="1773580476917" class="icon" viewBox="0 0 1024 1024" version="1.1" xmlns="http://www.w3.org/2000/svg" p-id="9510" xmlns:xlink="http://www.w3.org/1999/xlink" width="200" height="200"><path d="M528.12 607.199c36.996 0 55.56 29.3 55.692 69.632 0 49.714-18.498 69.632-55.494 69.632-36.93 0-55.428-19.918-55.428-69.632 0-39.837 27.549-69.632 55.23-69.632z m185.872-427.966c55.494 49.714 341.95 417.957 92.325 686.74-267.99 238.824-526.699 109.437-628.306 0-55.494-79.673-73.96-159.215-55.494-258.774 18.498-109.601 101.739-209.028 110.955-328.539 27.78 59.755 36.996 109.469 36.996 169.224C372.042 328.506 464.467 159.314 445.968 0c0 0 175.567 59.755 249.526 358.334 46.146-39.705 36.996-119.379 18.498-179.101zM409.138 786.3l9.315-218.938h-46.18v89.55H279.85v-89.517h-46.146V786.3h46.146v-89.55h83.176v89.517h46.146z m120.105 0c64.644 0 101.64-39.705 101.64-109.469 0-69.632-36.996-109.469-101.64-109.469S427.636 607.2 427.636 676.831 464.632 786.3 529.243 786.3zM760.27 607.199h64.744v-39.837H649.48V607.2h64.644v179.1h46.146V607.2z" fill="#FFCE32" p-id="9511"></path></svg>